<?xml version="1.0" encoding="UTF-8"?>
<svg xmlns="http://www.w3.org/2000/svg" xmlns:xlink="http://www.w3.org/1999/xlink" width="100px" height="11px" viewBox="0 0 100 11" version="1.1">
<g id="surface1">
<path style=" stroke:none;fill-rule:nonzero;fill:rgb(86.274511%,0%,1.960784%);fill-opacity:1;" d="M 6.3125 0.0507812 L 0 10.949219 L 3.914062 10.949219 L 4.832031 9.335938 L 12.292969 9.335938 L 13.210938 10.949219 L 17.21875 10.949219 L 10.917969 0.0507812 Z M 32.394531 0.0507812 L 27.789062 0.0507812 L 23.683594 3.886719 L 21.832031 3.886719 L 21.832031 0 L 18.289062 0 L 18.289062 10.949219 L 21.832031 10.949219 L 21.832031 6.984375 L 24.140625 6.984375 L 28.515625 10.960938 L 33.351562 10.960938 L 26.859375 5.140625 Z M 47.148438 5.269531 C 47.800781 4.949219 48.4375 4.296875 48.4375 2.953125 C 48.4375 1.152344 47.148438 0.0390625 44.980469 0.0390625 L 34.382812 0.0390625 L 34.382812 11 L 45.402344 11 C 47.570312 11 49.140625 9.988281 49.140625 7.957031 C 49.125 6.191406 47.980469 5.449219 47.148438 5.269531 M 55.808594 0.0507812 L 49.496094 11 L 53.410156 11 L 54.328125 9.386719 L 61.789062 9.386719 L 62.707031 11 L 66.714844 11 L 60.414062 0.0507812 Z M 79.121094 7.675781 L 72.949219 0.0507812 L 67.785156 0.0507812 L 67.785156 11 L 71.292969 11 L 71.292969 3.324219 L 77.464844 10.949219 L 82.628906 10.949219 L 82.628906 0.0507812 L 79.121094 0.0507812 Z M 93.457031 5.128906 L 99.03125 0.0507812 L 94.375 0.0507812 L 90.320312 3.886719 L 88.472656 3.886719 L 88.472656 0 L 84.9375 0 L 84.9375 10.949219 L 88.484375 10.949219 L 88.484375 6.984375 L 90.792969 6.984375 L 95.167969 10.960938 L 100 10.960938 Z M 37.839844 2.636719 L 43.871094 2.636719 C 44.523438 2.636719 44.980469 2.867188 44.980469 3.464844 C 44.980469 4.066406 44.523438 4.246094 43.871094 4.246094 L 37.839844 4.246094 Z M 6.3125 6.753906 L 8.570312 2.777344 L 10.828125 6.753906 Z M 55.808594 6.753906 L 58.066406 2.777344 L 60.324219 6.753906 Z M 44.332031 8.363281 L 37.878906 8.363281 L 37.878906 6.613281 L 44.332031 6.613281 C 45.019531 6.613281 45.53125 6.84375 45.53125 7.496094 C 45.53125 8.082031 45.019531 8.363281 44.332031 8.363281 "/>
</g>
</svg>
