<?xml version="1.0" standalone="no"?> <!DOCTYPE svg PUBLIC "-//W3C//DTD SVG 20010904//EN" "http://www.w3.org/TR/2001/REC-SVG-20010904/DTD/svg10.dtd"> <svg version="1.0" xmlns="http://www.w3.org/2000/svg" width="213.000000pt" height="60.000000pt" viewBox="0 0 213.000000 60.000000" preserveAspectRatio="xMidYMid meet"> <g transform="translate(0.000000,60.000000) scale(0.100000,-0.100000)" fill="#fb902d" stroke="none"> <path d="M720 443 c0 -179 9 -209 73 -251 33 -22 54 -28 119 -31 71 -3 78 -1 78 16 0 35 -29 63 -66 63 -19 0 -50 6 -68 14 -46 19 -56 57 -55 189 2 117 -7 140 -57 150 l-24 4 0 -154z m54 111 c10 -25 1 -27 -25 -5 -24 20 -24 20 -3 21 12 0 25 -7 28 -16z m5 -127 c-1 -63 3 -104 14 -129 8 -20 13 -39 11 -42 -2 -3 -1 -4 2 -1 4 2 24 -5 46 -16 22 -11 46 -18 54 -15 9 4 12 2 8 -5 -4 -7 0 -9 12 -5 12 4 23 0 30 -12 10 -16 6 -17 -69 -11 -71 5 -83 9 -103 32 -34 39 -44 89 -44 210 0 105 0 107 20 97 19 -10 21 -20 19 -103z"/> <path d="M773 265 c0 -8 4 -12 9 -9 5 3 6 10 3 15 -9 13 -12 11 -12 -6z"/> <path d="M1326 585 c-16 -17 -13 -62 7 -82 7 -6 24 -15 40 -18 27 -7 27 -7 27 42 0 27 -5 54 -12 61 -16 16 -44 15 -62 -3z m40 -32 c2 -9 0 -21 -3 -27 -8 -13 -22 25 -15 42 5 15 15 8 18 -15z"/> <path d="M2036 534 c6 -53 5 -56 -13 -50 -107 34 -206 -15 -233 -115 -21 -76 23 -164 97 -195 20 -9 70 -14 133 -14 l100 0 0 195 c0 182 -1 196 -20 215 -11 11 -31 20 -45 20 -24 0 -25 -1 -19 -56z m52 -171 l-3 -168 -97 0 c-71 -1 -99 3 -102 12 -3 7 -11 13 -19 13 -22 0 -54 71 -52 115 2 49 41 111 75 121 33 9 120 12 114 3 -6 -10 38 2 54 14 9 7 11 22 8 42 -4 17 -3 35 1 38 18 18 23 -34 21 -190z"/> <path d="M1886 413 c-15 -13 -24 -23 -21 -23 4 0 -1 -7 -10 -16 -9 -10 -14 -27 -12 -43 6 -35 28 -81 39 -81 5 0 6 -4 3 -10 -4 -6 1 -7 11 -3 12 4 15 3 10 -5 -8 -13 -2 -14 74 -17 66 -2 80 14 80 91 0 35 -5 66 -10 69 -6 4 -8 11 -5 16 4 5 -1 9 -9 9 -9 0 -16 4 -16 9 0 13 -51 32 -81 29 -15 -1 -39 -12 -53 -25z m121 -25 c19 -18 23 -32 23 -85 l0 -63 -57 3 c-47 3 -60 8 -81 32 -19 23 -23 36 -18 64 10 67 85 94 133 49z"/> <path d="M1266 502 c-3 -5 1 -9 9 -9 8 0 12 4 9 9 -3 4 -7 8 -9 8 -2 0 -6 -4 -9 -8z"/> <path d="M115 488 c-43 -15 -94 -67 -105 -107 -5 -19 -7 -37 -5 -40 3 -2 5 1 5 8 0 7 5 9 10 6 6 -3 10 -3 11 2 3 31 11 47 34 69 14 13 31 24 36 24 6 0 8 3 6 8 -3 4 16 6 41 6 68 -2 69 -3 86 -20 12 -11 16 -12 16 -2 0 7 8 1 17 -12 9 -14 21 -28 27 -32 10 -7 17 -171 8 -195 -3 -9 -31 -12 -95 -10 -79 2 -96 5 -124 26 -17 13 -37 37 -43 52 -7 16 -19 34 -27 40 -12 11 -13 8 -7 -17 12 -52 38 -87 83 -111 38 -20 59 -23 149 -23 l104 0 -3 113 c-4 107 -6 116 -33 151 -31 41 -95 76 -136 75 -14 0 -38 -5 -55 -11z"/> <path d="M480 488 c-39 -11 -85 -50 -106 -90 -16 -31 -20 -238 -4 -238 23 0 59 24 69 47 6 13 11 54 11 92 0 58 3 71 23 89 29 27 77 29 108 3 19 -16 23 -30 28 -106 5 -75 9 -89 30 -106 13 -10 32 -19 42 -19 17 0 19 8 19 93 -1 96 -15 154 -47 189 -40 45 -112 64 -173 46z m110 -32 c14 -4 36 -23 49 -42 21 -30 25 -50 28 -131 3 -82 2 -93 -10 -81 -8 8 -17 44 -20 83 -3 39 -10 82 -15 96 -10 25 -37 44 -55 40 -5 -1 -6 3 -2 9 4 6 -9 10 -34 10 -22 0 -43 -5 -46 -10 -4 -6 -11 -8 -16 -5 -5 4 -9 1 -9 -5 0 -6 -9 -20 -19 -31 -23 -25 -32 -77 -19 -103 7 -13 7 -16 -2 -11 -8 5 -10 -2 -7 -23 3 -20 0 -35 -10 -43 -13 -11 -14 -1 -11 77 4 101 6 110 30 136 38 39 103 53 168 34z"/> <path d="M1078 490 c-75 -23 -118 -84 -118 -168 0 -96 78 -162 192 -162 32 0 58 -4 58 -9 0 -6 -10 -22 -23 -37 -18 -21 -35 -28 -75 -32 -53 -5 -74 -19 -86 -59 -10 -31 16 -31 29 0 8 17 17 21 42 20 18 -2 35 1 38 7 3 5 11 7 18 4 16 -6 80 69 82 97 2 28 -27 41 -99 44 -59 2 -131 30 -131 51 0 5 -4 15 -9 22 -16 26 -10 100 10 123 12 14 13 19 4 14 -8 -5 -2 4 13 18 15 15 34 27 42 27 8 0 16 3 19 8 4 6 19 6 98 -1 9 -1 14 -5 12 -9 -5 -8 12 -12 31 -8 6 1 7 -2 2 -6 -4 -4 1 -16 10 -26 23 -25 24 -34 27 -168 2 -83 -2 -122 -12 -140 -14 -26 -73 -70 -92 -70 -6 0 -8 -5 -5 -10 3 -6 1 -10 -6 -10 -7 0 -10 -2 -8 -5 3 -2 20 0 39 5 39 11 87 54 102 90 17 39 11 276 -7 311 -31 59 -132 100 -197 79z m49 -436 c-3 -3 -12 -4 -19 -1 -8 3 -5 6 6 6 11 1 17 -2 13 -5z"/> <path d="M1555 488 c-69 -15 -125 -87 -125 -160 0 -47 35 -110 77 -138 32 -22 49 -25 150 -29 l113 -3 0 100 c0 56 -5 113 -11 129 -29 78 -116 121 -204 101z m103 -36 c12 -7 22 -10 22 -7 0 3 8 -3 18 -12 11 -10 17 -21 15 -25 -2 -3 3 -8 9 -10 9 -3 14 -35 16 -101 4 -94 3 -97 -20 -106 -12 -5 -30 -5 -39 0 -10 5 -21 3 -29 -4 -10 -9 -11 -9 -6 0 5 9 -6 12 -36 11 -63 -2 -101 17 -127 62 -25 45 -25 116 -1 145 46 55 126 76 178 47z"/> <path d="M1534 417 c-12 -12 -21 -24 -21 -27 0 -3 -5 -15 -12 -28 -20 -37 -5 -101 26 -113 13 -5 22 -13 19 -17 -3 -5 3 -9 12 -10 39 -4 126 -1 134 4 5 3 8 41 7 85 -2 73 -4 80 -30 102 -40 33 -106 35 -135 4z m121 -32 c21 -20 25 -34 25 -86 l0 -61 -57 4 c-46 4 -61 10 -80 32 -46 54 -12 136 57 136 19 0 40 -9 55 -25z"/> <path d="M862 464 c-12 -8 -27 -24 -33 -35 -10 -19 -8 -19 33 3 24 12 54 23 67 25 22 2 23 1 5 -18 -11 -12 -24 -17 -37 -13 -14 4 -17 3 -12 -6 5 -8 4 -11 -3 -6 -13 8 -63 -14 -56 -25 3 -5 21 -9 40 -9 27 0 45 9 80 42 33 30 41 44 32 50 -22 13 -92 9 -116 -8z"/> <path d="M1320 341 c0 -142 8 -164 63 -177 l27 -6 0 131 c0 127 -1 133 -25 156 -13 14 -33 25 -45 25 -19 0 -20 -6 -20 -129z m55 -30 c0 -110 0 -112 -18 -90 -11 14 -16 31 -13 43 3 12 6 54 6 94 0 53 3 73 12 70 8 -3 12 -38 13 -117z"/> <path d="M109 417 c-15 -12 -34 -36 -44 -52 -14 -25 -14 -35 -4 -60 7 -17 13 -34 13 -39 2 -23 69 -49 118 -47 78 3 88 14 84 88 -2 35 -10 71 -17 81 -26 32 -37 41 -43 35 -3 -4 -6 -1 -6 5 0 22 -73 14 -101 -11z m116 -32 c21 -20 25 -34 25 -86 l0 -61 -55 4 c-70 6 -105 35 -105 87 0 74 83 109 135 56z"/> <path d="M1057 411 c-29 -26 -34 -37 -36 -80 -1 -31 2 -51 9 -51 5 0 10 -6 10 -13 0 -23 59 -49 115 -50 64 -2 77 12 83 90 3 49 1 55 -35 92 -49 53 -95 56 -146 12z m114 -14 c27 -21 39 -54 39 -106 l0 -51 -39 0 c-57 0 -100 19 -116 51 -21 39 -19 53 11 88 28 33 75 41 105 18z"/> <path d="M583 155 c0 -8 4 -12 9 -9 5 3 6 10 3 15 -9 13 -12 11 -12 -6z"/> <path d="M460 141 c0 -6 4 -13 10 -16 6 -3 7 1 4 9 -7 18 -14 21 -14 7z"/> <path d="M1641 102 c-1 -20 3 -31 9 -27 6 3 10 0 10 -7 0 -8 5 -6 11 5 12 20 4 51 -10 43 -5 -4 -12 0 -14 6 -3 7 -6 -2 -6 -20z"/> <path d="M1700 104 l0 -29 95 0 c52 0 95 2 96 5 0 3 2 13 4 23 5 24 -26 18 -42 -8 -12 -20 -12 -19 -13 3 0 22 -20 32 -20 10 0 -9 -4 -8 -10 2 -8 12 -10 12 -11 -5 0 -20 -1 -20 -8 0 -8 19 -8 19 -19 0 -9 -17 -11 -17 -12 -3 0 10 -7 15 -17 13 -10 -1 -24 2 -30 8 -10 7 -13 2 -13 -19z"/> <path d="M2067 123 c-16 -3 -25 -9 -21 -15 5 -7 2 -8 -7 -2 -8 5 -33 10 -56 11 -38 1 -43 -1 -43 -20 0 -17 6 -22 27 -24 15 0 33 6 40 15 12 16 14 16 27 0 15 -20 36 -24 36 -7 0 6 5 7 13 2 27 -17 37 -11 36 20 0 29 -1 30 -9 10 -12 -28 -24 -30 -15 -3 3 11 5 19 3 19 -2 -1 -15 -4 -31 -6z"/> <path d="M1320 111 c0 -5 -2 -16 -5 -23 -4 -9 2 -14 15 -14 13 0 19 5 15 14 -3 7 -5 18 -5 23 0 5 -4 9 -10 9 -5 0 -10 -4 -10 -9z"/> <path d="M1350 111 c0 -5 3 -18 7 -28 6 -16 8 -15 14 7 6 21 7 21 8 5 1 -18 8 -21 51 -23 34 -1 50 2 50 10 0 9 4 8 11 -2 8 -12 9 -10 7 10 -2 20 -9 26 -35 28 -26 3 -33 -1 -34 -15 0 -16 -1 -16 -8 2 -8 19 -8 19 -20 0 -10 -16 -11 -16 -7 -2 4 13 0 17 -19 17 -14 0 -25 -4 -25 -9z m97 -23 c-3 -8 -6 -5 -6 6 -1 11 2 17 5 13 3 -3 4 -12 1 -19z m26 7 c-3 -9 -8 -14 -10 -11 -3 3 -2 9 2 15 9 16 15 13 8 -4z"/> <path d="M1515 108 c-11 -28 2 -36 50 -32 30 3 44 1 40 -6 -3 -5 -2 -10 3 -10 11 0 23 40 16 52 -8 12 -32 10 -37 -4 -4 -10 -6 -10 -6 0 -1 6 -10 12 -21 12 -11 0 -20 -6 -20 -12 0 -9 -3 -8 -10 2 -8 12 -10 12 -15 -2z"/> <path d="M1909 118 c-7 -25 -7 -48 1 -48 6 0 10 11 10 25 0 20 -7 35 -11 23z"/> <path d="M2010 80 c0 -5 5 -10 10 -10 6 0 10 5 10 10 0 6 -4 10 -10 10 -5 0 -10 -4 -10 -10z"/> </g> </svg>