<?xml version="1.0" encoding="UTF-8"?>
<svg version="1.1" xmlns="http://www.w3.org/2000/svg" width="225" height="225">
<path d="M0 0 C74.25 0 148.5 0 225 0 C225 74.25 225 148.5 225 225 C150.75 225 76.5 225 0 225 C0 150.75 0 76.5 0 0 Z " fill="#E85510" transform="translate(0,0)"/>
<path d="M0 0 C4.97099547 2.8555192 8.74597741 6.1347252 11.97265625 10.8671875 C11.97265625 11.5271875 11.97265625 12.1871875 11.97265625 12.8671875 C6.59230227 13.3633267 2.47033135 13.6390618 -2.02734375 10.3671875 C-5.91034323 7.61378787 -8.91283131 7.1776115 -13.6328125 7.453125 C-19.02155106 8.38494602 -22.06148765 10.62891046 -25.46484375 14.9921875 C-27.68272117 19.49544295 -27.91533711 23.96791378 -27.02734375 28.8671875 C-24.86588666 34.11137847 -22.18047683 37.37277236 -17.02734375 39.8671875 C-11.64506182 40.67127 -5.94325179 40.99635255 -1.27734375 37.8671875 C-0.53484375 37.2071875 0.20765625 36.5471875 0.97265625 35.8671875 C-0.34734375 35.5371875 -1.66734375 35.2071875 -3.02734375 34.8671875 C-3.02734375 32.2271875 -3.02734375 29.5871875 -3.02734375 26.8671875 C2.25265625 26.8671875 7.53265625 26.8671875 12.97265625 26.8671875 C14.78513546 30.49214592 15.22129667 31.4623581 15.16796875 35.1953125 C15.16152344 35.99453125 15.15507813 36.79375 15.1484375 37.6171875 C15.13167969 38.4421875 15.11492187 39.2671875 15.09765625 40.1171875 C15.08863281 40.95765625 15.07960937 41.798125 15.0703125 42.6640625 C15.04681442 44.73189354 15.01094533 46.79957745 14.97265625 48.8671875 C12.33265625 48.8671875 9.69265625 48.8671875 6.97265625 48.8671875 C6.64265625 47.2171875 6.31265625 45.5671875 5.97265625 43.8671875 C5.50859375 44.228125 5.04453125 44.5890625 4.56640625 44.9609375 C-2.83559875 49.9324334 -10.47270372 49.95433967 -19.02734375 48.8671875 C-25.99211219 46.55267604 -31.94526804 39.99663766 -35.19921875 33.54296875 C-37.19055158 27.10870937 -37.30921325 18.7380453 -34.58984375 12.4921875 C-27.25691844 0.3404827 -13.43938546 -5.02893133 0 0 Z " fill="#FEF8F6" transform="translate(76.02734375,80.1328125)"/>
<path d="M0 0 C5.23273331 -0.04935824 10.46533176 -0.08569949 15.69824219 -0.10986328 C17.47919067 -0.11993431 19.26012257 -0.13359185 21.04101562 -0.15087891 C23.59769783 -0.17507913 26.15416185 -0.18647184 28.7109375 -0.1953125 C29.90944839 -0.21079636 29.90944839 -0.21079636 31.13217163 -0.22659302 C33.0895722 -0.22699226 35.04643077 -0.12241069 37 0 C37.66 0.66 38.32 1.32 39 2 C38.7828591 6.64842372 36.52029808 9.32383686 33.6875 12.875 C33.24962158 13.42945801 32.81174316 13.98391602 32.3605957 14.55517578 C30.91678686 16.37810791 29.45957578 18.18967345 28 20 C26.41624301 21.97475933 24.83348746 23.95031599 23.2512207 25.92626953 C22.23711452 27.19006274 21.22019025 28.45160179 20.19995117 29.71044922 C19.48802612 30.59240967 19.48802612 30.59240967 18.76171875 31.4921875 C18.34881592 32.00120605 17.93591309 32.51022461 17.51049805 33.03466797 C15.25987035 35.96299396 13.14668334 38.99464332 11 42 C20.57 42 30.14 42 40 42 C40 44.64 40 47.28 40 50 C34.17928378 50.02464638 28.35859766 50.0428343 22.5378418 50.05493164 C20.55606559 50.05997267 18.57429311 50.06680538 16.5925293 50.07543945 C13.75047891 50.08751515 10.90847753 50.09323045 8.06640625 50.09765625 C6.72891075 50.10539818 6.72891075 50.10539818 5.36439514 50.11329651 C3.24259399 50.11349177 1.1208922 50.0621003 -1 50 C-1.33 49.67 -1.66 49.34 -2 49 C-1.74164795 43.12966742 -0.17690262 40.40373493 3.75 36.125 C4.74866671 35.00735674 5.74326301 33.88606686 6.734375 32.76171875 C7.52618164 31.86525635 7.52618164 31.86525635 8.33398438 30.95068359 C11.37065487 27.39514472 14.17807739 23.66413067 17 19.9375 C17.55139648 19.21127441 18.10279297 18.48504883 18.67089844 17.73681641 C21.12396987 14.49867109 23.56254868 11.24993509 26 8 C17.42 8 8.84 8 0 8 C0 5.36 0 2.72 0 0 Z " fill="#FEF9F7" transform="translate(141,79)"/>
<path d="M0 0 C1.47583955 0.0001591 2.95168467 0.00585225 4.42749023 0.01586914 C5.20293686 0.01728409 5.97838348 0.01869904 6.77732849 0.02015686 C9.26361893 0.02577194 11.74982059 0.03832693 14.23608398 0.05102539 C15.91772331 0.05603845 17.59936405 0.06060169 19.28100586 0.06469727 C23.41189965 0.07574626 27.54272674 0.09302094 31.67358398 0.11352539 C31.67358398 2.75352539 31.67358398 5.39352539 31.67358398 8.11352539 C22.43358398 8.11352539 13.19358398 8.11352539 3.67358398 8.11352539 C3.67358398 14.38352539 3.67358398 20.65352539 3.67358398 27.11352539 C8.29358398 27.11352539 12.91358398 27.11352539 17.67358398 27.11352539 C17.67358398 30.08352539 17.67358398 33.05352539 17.67358398 36.11352539 C13.05358398 36.11352539 8.43358398 36.11352539 3.67358398 36.11352539 C3.67358398 38.09352539 3.67358398 40.07352539 3.67358398 42.11352539 C12.91358398 42.11352539 22.15358398 42.11352539 31.67358398 42.11352539 C31.67358398 44.75352539 31.67358398 47.39352539 31.67358398 50.11352539 C26.70736049 50.13817637 21.74117232 50.15636188 16.77490234 50.16845703 C15.08414083 50.17349729 13.39338369 50.18032944 11.70263672 50.18896484 C9.27757692 50.20104396 6.85257454 50.20675662 4.42749023 50.21118164 C3.28685875 50.21892357 3.28685875 50.21892357 2.1231842 50.2268219 C0.30625828 50.22701777 -1.51054729 50.17549816 -3.32641602 50.11352539 C-4.92693266 48.51300875 -4.45373074 46.82506417 -4.45581055 44.60961914 C-4.45896271 43.65192627 -4.46211487 42.6942334 -4.46536255 41.70751953 C-4.46333832 40.66587646 -4.46131409 39.6242334 -4.45922852 38.55102539 C-4.46018524 37.48940186 -4.46114197 36.42777832 -4.46212769 35.33398438 C-4.46280966 33.08439068 -4.4609542 30.83479502 -4.45678711 28.58520508 C-4.45143911 25.12845468 -4.45673156 21.67183422 -4.46313477 18.21508789 C-4.46247399 16.0354001 -4.46119283 13.85571239 -4.45922852 11.67602539 C-4.46125275 10.63438232 -4.46327698 9.59273926 -4.46536255 8.51953125 C-4.46221039 7.56183838 -4.45905823 6.60414551 -4.45581055 5.61743164 C-4.45501495 4.76995361 -4.45421936 3.92247559 -4.45339966 3.04931641 C-4.23169731 -0.33040556 -3.48544597 0.11895283 0 0 Z " fill="#FDF6F3" transform="translate(101.326416015625,78.886474609375)"/>
<path d="M0 0 C49.83 0 99.66 0 151 0 C151 1.98 151 3.96 151 6 C101.17 6 51.34 6 0 6 C0 4.02 0 2.04 0 0 Z " fill="#FEFAF8" transform="translate(37,139)"/>
</svg>
